<svg viewBox="0 0 84 14" xmlns="http://www.w3.org/2000/svg" fill-rule="evenodd" clip-rule="evenodd" stroke-linejoin="round" stroke-miterlimit="1.414"><path d="M5.596.954C2.774.954.86 2.332.86 4.537c0 4.575 7.02 2.977 7.02 5.843 0 .992-.91 1.562-2.432 1.562-1.393 0-3.064-.662-4.4-1.874L.1 11.942c1.337 1.213 3.268 2.04 5.31 2.04 2.86 0 4.902-1.415 4.902-3.712.02-4.63-7-3.124-7-5.935 0-.864.836-1.342 2.117-1.342.983 0 2.395.35 3.806 1.195l.91-1.91C8.938 1.487 7.286.953 5.596.953zM16.753 11.666c-.575.276-1.04.423-1.485.423-.668 0-1.058-.313-1.058-1.324V6.08h2.915V4.5H14.21V1.817h-2.117V4.5H10.7v1.58h1.393v5.072c0 2.003 1.28 2.848 2.766 2.848.835 0 1.652-.257 2.432-.717l-.54-1.617zM20.535 4.133H18.4v9.775h2.135V8.8c.168-1.672 1.43-2.83 3.417-2.72V4.06c-1.56 0-2.748.697-3.417 2.02V4.133zM29.195 4.06C26.26 4.076 24.2 6.08 24.2 9.04c0 2.94 2.005 4.942 5.05 4.942 1.71 0 3.12-.607 4.086-1.654l-1.133-1.195c-.724.735-1.708 1.14-2.786 1.14-1.56 0-2.73-.937-3.063-2.444h7.465c.258-3.53-1.153-5.77-4.625-5.77zm-2.878 4.225c.24-1.562 1.337-2.536 2.896-2.536 1.616 0 2.674.955 2.75 2.535h-5.646zM39.695 4.06C36.76 4.076 34.7 6.08 34.7 9.04c0 2.94 2.005 4.942 5.05 4.942 1.71 0 3.12-.607 4.086-1.654l-1.133-1.195c-.724.735-1.708 1.14-2.785 1.14-1.56 0-2.73-.937-3.064-2.444h7.464c.26-3.53-1.15-5.77-4.623-5.77zm-2.878 4.225c.24-1.562 1.336-2.536 2.896-2.536 1.616 0 2.674.955 2.75 2.535h-5.646zM51.053 11.666c-.575.276-1.04.423-1.485.423-.67 0-1.06-.313-1.06-1.324V6.08h2.917V4.5H48.51V1.817h-2.117V4.5H45v1.58h1.393v5.072c0 2.003 1.28 2.848 2.766 2.848.835 0 1.652-.257 2.432-.717l-.54-1.617zM65.787 4.06c-1.802 0-3.12.716-3.75 2.35-.466-1.487-1.672-2.35-3.436-2.35-1.634 0-2.896.587-3.583 1.965V4.133H52.9v9.775h2.117V9.076c0-1.71 1.04-2.996 2.748-3.05 1.448 0 2.32.9 2.32 2.388v5.494h2.136V9.076c0-1.71 1.022-2.996 2.712-3.05 1.45 0 2.34.9 2.34 2.388v5.494h2.135V7.826c0-2.334-1.355-3.767-3.62-3.767zM71.956.053c-.706 0-1.244.533-1.244 1.286 0 .735.538 1.268 1.244 1.268.705 0 1.244-.533 1.244-1.27 0-.752-.54-1.285-1.244-1.285zm1.058 13.855V4.133h-2.117v9.775h2.117zM78.99 7.477l-2.21-3.344h-2.45l3.25 4.76-3.49 5.015h2.376l2.525-3.583 2.36 3.583h2.45l-3.398-5.016 3.175-4.76h-2.34l-2.246 3.345z" fill-rule="nonzero"/></svg>