<svg viewBox="0 0 220 70" xmlns="http://www.w3.org/2000/svg" fill-rule="evenodd" clip-rule="evenodd" stroke-linejoin="round" stroke-miterlimit="1.414"><g fill="#35677C" fill-rule="nonzero"><path d="M28.943 20.664c-6.385 0-10.71 3.15-10.71 8.19 0 10.458 15.875 6.804 15.875 13.357 0 2.27-2.057 3.57-5.5 3.57-3.15 0-6.93-1.51-9.956-4.283l-2.14 4.283c3.023 2.772 7.39 4.662 12.01 4.662 6.468 0 11.088-3.234 11.088-8.483.042-10.585-15.833-7.142-15.833-13.567 0-1.974 1.89-3.067 4.788-3.067 2.226 0 5.418.798 8.61 2.73l2.058-4.367c-2.73-1.807-6.468-3.026-10.29-3.026zM54.436 45.15c-1.3.63-2.352.967-3.36.967-1.51 0-2.393-.714-2.393-3.024v-10.71h6.593V28.77h-6.593v-6.13h-4.788v6.13h-3.15v3.612h3.15v11.592c0 4.578 2.898 6.51 6.258 6.51 1.89 0 3.738-.587 5.502-1.638l-1.22-3.695zM62.836 27.93h-4.83v22.344h4.83V38.598c.38-3.822 3.234-6.467 7.728-6.216v-4.62c-3.527 0-6.216 1.596-7.728 4.62v-4.45zM81.652 27.762c-6.635.042-11.297 4.62-11.297 11.383 0 6.72 4.536 11.297 11.424 11.297 3.863 0 7.055-1.385 9.238-3.78l-2.562-2.73c-1.638 1.68-3.864 2.604-6.3 2.604-3.527 0-6.174-2.14-6.93-5.586H92.11c.59-8.063-2.603-13.188-10.458-13.188zm-6.51 9.66c.547-3.57 3.025-5.796 6.552-5.796 3.654 0 6.048 2.185 6.216 5.797H75.143zM104.248 27.762c-6.635.042-11.297 4.62-11.297 11.383 0 6.72 4.537 11.297 11.425 11.297 3.864 0 7.056-1.385 9.24-3.78l-2.563-2.73c-1.638 1.68-3.864 2.604-6.3 2.604-3.527 0-6.174-2.14-6.93-5.586h16.884c.59-8.063-2.603-13.188-10.458-13.188zm-6.51 9.66c.547-3.57 3.024-5.796 6.553-5.796 3.654 0 6.048 2.185 6.217 5.797h-12.77zM129.07 45.15c-1.3.63-2.352.967-3.36.967-1.512 0-2.394-.714-2.394-3.024v-10.71h6.594V28.77h-6.594v-6.13h-4.787v6.13h-3.15v3.612h3.15v11.592c0 4.578 2.897 6.51 6.256 6.51 1.89 0 3.74-.587 5.502-1.638l-1.218-3.695zM161.788 27.762c-4.074 0-7.056 1.638-8.483 5.376-1.05-3.4-3.78-5.376-7.77-5.376-3.697 0-6.553 1.345-8.107 4.495V27.93h-4.788v22.344h4.788V39.23c0-3.907 2.352-6.848 6.216-6.973 3.276 0 5.25 2.058 5.25 5.46v12.557h4.83V39.23c0-3.907 2.31-6.848 6.132-6.973 3.276 0 5.292 2.058 5.292 5.46v12.557h4.83V36.372c0-5.334-3.066-8.61-8.19-8.61zM176.74 18.607c-1.596 0-2.814 1.218-2.814 2.94 0 1.68 1.218 2.898 2.814 2.898s2.814-1.22 2.814-2.9c0-1.72-1.218-2.938-2.814-2.938zm2.394 31.667V27.93h-4.788v22.344h4.788zM192.28 35.574l-4.998-7.643h-5.544l7.35 10.878-7.896 11.466h5.376l5.712-8.19 5.334 8.19h5.544l-7.686-11.466 7.182-10.877h-5.292l-5.082 7.644z"/></g></svg>