<?xml version="1.0" encoding="UTF-8" standalone="no"?>
<!DOCTYPE svg PUBLIC "-//W3C//DTD SVG 1.1//EN" "http://www.w3.org/Graphics/SVG/1.1/DTD/svg11.dtd">
<svg width="100%" height="100%" viewBox="0 0 450 30" version="1.1" xmlns="http://www.w3.org/2000/svg" xmlns:xlink="http://www.w3.org/1999/xlink" xml:space="preserve" style="fill-rule:evenodd;clip-rule:evenodd;stroke-linejoin:round;stroke-miterlimit:1.41421;">
    <g transform="matrix(0.615643,3.08149e-32,3.19704e-32,0.615643,139.023,-0.758981)">
        <g transform="matrix(0.571429,0,0,0.571429,-4.57143,-4.57143)">
            <path d="M35.031,13C31.131,13 28,16.131 28,20.031L28,23L62.969,23C69.01,23 74,27.99 74,34.031L74,61.969C74,63.445 73.695,64.863 73.156,66.156L82,75L82,57L84.969,57C88.869,57 92,53.869 92,49.969L92,20.031C92,16.131 88.869,13 84.969,13L35.031,13Z" style="fill:rgb(220,220,220);"/>
        </g>
        <g transform="matrix(0.571429,0,0,0.571429,-4.57143,-4.57143)">
            <path d="M15.031,27C11.131,27 8,30.131 8,34.031L8,61.969C8,65.869 11.131,69 15.031,69L18,69L18,87L36,69L62.969,69C66.869,69 70,65.869 70,61.969L70,34.031C70,30.131 66.869,27 62.969,27L15.031,27Z" style="fill:rgb(92,158,188);"/>
        </g>
        <g transform="matrix(0.571429,0,0,0.571429,-4.57143,-4.57143)">
            <path d="M25,44C27.209,44 29,45.791 29,48C29,50.209 27.209,52 25,52C22.791,52 21,50.209 21,48C21,45.791 22.791,44 25,44Z" style="fill:white;"/>
        </g>
        <g transform="matrix(0.571429,0,0,0.571429,-4.57143,-4.57143)">
            <path d="M39,44C41.209,44 43,45.791 43,48C43,50.209 41.209,52 39,52C36.791,52 35,50.209 35,48C35,45.791 36.791,44 39,44Z" style="fill:white;"/>
        </g>
        <g transform="matrix(0.571429,0,0,0.571429,-4.57143,-4.57143)">
            <path d="M53,44C55.209,44 57,45.791 57,48C57,50.209 55.209,52 53,52C50.791,52 49,50.209 49,48C49,45.791 50.791,44 53,44Z" style="fill:white;"/>
        </g>
    </g>
    <g transform="matrix(0.73742,3.65927e-32,3.77482e-32,0.73742,-14.2972,11.5508)">
        <path d="M31.212,-11.417C25.14,-11.417 21.026,-8.421 21.026,-3.627C21.026,6.319 36.125,2.844 36.125,9.076C36.125,11.233 34.168,12.471 30.893,12.471C27.897,12.471 24.302,11.033 21.425,8.397L19.388,12.471C22.264,15.107 26.419,16.905 30.813,16.905C36.964,16.905 41.358,13.829 41.358,8.836C41.398,-1.23 26.299,2.045 26.299,-4.066C26.299,-5.944 28.096,-6.983 30.853,-6.983C32.97,-6.983 36.006,-6.224 39.042,-4.386L40.999,-8.54C38.402,-10.258 34.847,-11.417 31.212,-11.417Z" style="fill:rgb(72,103,123);fill-rule:nonzero;"/>
        <path d="M55.459,11.872C54.221,12.471 53.222,12.791 52.264,12.791C50.826,12.791 49.987,12.112 49.987,9.915L49.987,-0.272L56.258,-0.272L56.258,-3.707L49.987,-3.707L49.987,-9.539L45.433,-9.539L45.433,-3.707L42.437,-3.707L42.437,-0.272L45.433,-0.272L45.433,10.753C45.433,15.107 48.189,16.945 51.385,16.945C53.182,16.945 54.94,16.386 56.618,15.387L55.459,11.872Z" style="fill:rgb(72,103,123);fill-rule:nonzero;"/>
        <path d="M63.448,-4.506L58.855,-4.506L58.855,16.745L63.448,16.745L63.448,5.64C63.808,2.005 66.524,-0.511 70.798,-0.272L70.798,-4.666C67.443,-4.666 64.886,-3.148 63.448,-0.272L63.448,-4.506Z" style="fill:rgb(72,103,123);fill-rule:nonzero;"/>
        <path d="M81.344,-4.666C75.033,-4.626 70.599,-0.272 70.599,6.16C70.599,12.551 74.913,16.905 81.464,16.905C85.139,16.905 88.175,15.587 90.252,13.31L87.815,10.713C86.257,12.311 84.14,13.19 81.823,13.19C78.468,13.19 75.951,11.153 75.232,7.877L91.291,7.877C91.85,0.208 88.814,-4.666 81.344,-4.666ZM75.153,4.522C75.672,1.126 78.029,-0.991 81.384,-0.991C84.859,-0.991 87.136,1.087 87.296,4.522L75.153,4.522Z" style="fill:rgb(72,103,123);fill-rule:nonzero;"/>
        <path d="M102.835,-4.666C96.524,-4.626 92.09,-0.272 92.09,6.16C92.09,12.551 96.404,16.905 102.955,16.905C106.63,16.905 109.666,15.587 111.743,13.31L109.306,10.713C107.748,12.311 105.631,13.19 103.314,13.19C99.959,13.19 97.442,11.153 96.723,7.877L112.781,7.877C113.341,0.208 110.305,-4.666 102.835,-4.666ZM96.643,4.522C97.163,1.126 99.519,-0.991 102.875,-0.991C106.35,-0.991 108.627,1.087 108.787,4.522L96.643,4.522Z" style="fill:rgb(72,103,123);fill-rule:nonzero;"/>
        <path d="M126.443,11.872C125.205,12.471 124.206,12.791 123.247,12.791C121.809,12.791 120.97,12.112 120.97,9.915L120.97,-0.272L127.242,-0.272L127.242,-3.707L120.97,-3.707L120.97,-9.539L116.417,-9.539L116.417,-3.707L113.421,-3.707L113.421,-0.272L116.417,-0.272L116.417,10.753C116.417,15.107 119.173,16.945 122.368,16.945C124.166,16.945 125.924,16.386 127.601,15.387L126.443,11.872Z" style="fill:rgb(72,103,123);fill-rule:nonzero;"/>
        <path d="M157.561,-4.666C153.686,-4.666 150.85,-3.108 149.492,0.447C148.493,-2.788 145.897,-4.666 142.102,-4.666C138.586,-4.666 135.87,-3.387 134.392,-0.391L134.392,-4.506L129.838,-4.506L129.838,16.745L134.392,16.745L134.392,6.24C134.392,2.525 136.629,-0.272 140.304,-0.391C143.42,-0.391 145.297,1.566 145.297,4.801L145.297,16.745L149.891,16.745L149.891,6.24C149.891,2.525 152.088,-0.272 155.723,-0.391C158.839,-0.391 160.756,1.566 160.756,4.801L160.756,16.745L165.35,16.745L165.35,3.523C165.35,-1.55 162.434,-4.666 157.561,-4.666Z" style="fill:rgb(72,103,123);fill-rule:nonzero;"/>
        <path d="M171.781,-13.374C170.263,-13.374 169.105,-12.215 169.105,-10.578C169.105,-8.98 170.263,-7.821 171.781,-7.821C173.299,-7.821 174.458,-8.98 174.458,-10.578C174.458,-12.215 173.299,-13.374 171.781,-13.374ZM174.058,16.745L174.058,-4.506L169.504,-4.506L169.504,16.745L174.058,16.745Z" style="fill:rgb(72,103,123);fill-rule:nonzero;"/>
        <path d="M186.561,2.764L181.808,-4.506L176.535,-4.506L183.525,5.84L176.016,16.745L181.129,16.745L186.561,8.956L191.634,16.745L196.907,16.745L189.597,5.84L196.428,-4.506L191.395,-4.506L186.561,2.764Z" style="fill:rgb(72,103,123);fill-rule:nonzero;"/>
    </g>
    <g transform="matrix(2.40194,1.20706e-31,1.23686e-31,2.40194,-486.285,2.15782)">
        <path d="M279.13,0.616C276.646,0.616 274.714,2.452 274.714,4.84C274.714,7.252 276.622,9.112 279.082,9.112C280.27,9.112 281.482,8.572 282.334,7.732L281.494,6.796C280.858,7.408 279.994,7.792 279.154,7.792C277.474,7.792 276.154,6.484 276.154,4.828C276.154,3.172 277.474,1.876 279.154,1.876C280.006,1.876 280.882,2.284 281.494,2.944L282.322,1.912C281.506,1.108 280.318,0.616 279.13,0.616Z" style="fill:rgb(77,77,77);fill-rule:nonzero;"/>
        <path d="M285.766,2.62C283.786,2.62 282.43,3.928 282.43,5.86C282.43,7.78 283.786,9.1 285.766,9.1C287.734,9.1 289.09,7.78 289.09,5.86C289.09,3.928 287.734,2.62 285.766,2.62ZM285.766,3.808C286.906,3.808 287.71,4.648 287.71,5.872C287.71,7.108 286.906,7.948 285.766,7.948C284.614,7.948 283.81,7.108 283.81,5.872C283.81,4.648 284.614,3.808 285.766,3.808Z" style="fill:rgb(77,77,77);fill-rule:nonzero;"/>
        <path d="M298.378,2.62C297.214,2.62 296.362,3.088 295.954,4.156C295.654,3.184 294.874,2.62 293.734,2.62C292.678,2.62 291.862,3.004 291.418,3.904L291.418,2.668L290.05,2.668L290.05,9.052L291.418,9.052L291.418,5.896C291.418,4.78 292.09,3.94 293.194,3.904C294.13,3.904 294.694,4.492 294.694,5.464L294.694,9.052L296.074,9.052L296.074,5.896C296.074,4.78 296.734,3.94 297.826,3.904C298.762,3.904 299.338,4.492 299.338,5.464L299.338,9.052L300.718,9.052L300.718,5.08C300.718,3.556 299.842,2.62 298.378,2.62Z" style="fill:rgb(77,77,77);fill-rule:nonzero;"/>
        <path d="M310.414,2.62C309.25,2.62 308.398,3.088 307.99,4.156C307.69,3.184 306.91,2.62 305.77,2.62C304.714,2.62 303.898,3.004 303.454,3.904L303.454,2.668L302.086,2.668L302.086,9.052L303.454,9.052L303.454,5.896C303.454,4.78 304.126,3.94 305.23,3.904C306.166,3.904 306.73,4.492 306.73,5.464L306.73,9.052L308.11,9.052L308.11,5.896C308.11,4.78 308.77,3.94 309.862,3.904C310.798,3.904 311.374,4.492 311.374,5.464L311.374,9.052L312.754,9.052L312.754,5.08C312.754,3.556 311.878,2.62 310.414,2.62Z" style="fill:rgb(77,77,77);fill-rule:nonzero;"/>
        <path d="M319.918,2.668L318.538,2.668L318.538,5.812C318.538,6.928 317.89,7.78 316.786,7.804C315.862,7.804 315.298,7.216 315.298,6.256L315.298,2.668L313.918,2.668L313.918,6.64C313.918,8.164 314.794,9.1 316.258,9.1C317.302,9.088 318.106,8.692 318.538,7.804L318.538,9.052L319.918,9.052L319.918,2.668Z" style="fill:rgb(77,77,77);fill-rule:nonzero;"/>
        <path d="M325.21,2.62C324.13,2.62 323.314,3.004 322.858,3.892L322.858,2.668L321.478,2.668L321.478,9.052L322.858,9.052L322.858,5.656C322.954,4.66 323.614,3.928 324.67,3.916C325.63,3.916 326.206,4.504 326.206,5.464L326.206,9.052L327.586,9.052L327.586,5.08C327.586,3.556 326.698,2.62 325.21,2.62Z" style="fill:rgb(77,77,77);fill-rule:nonzero;"/>
        <path d="M329.638,0.004C329.182,0.004 328.834,0.352 328.834,0.844C328.834,1.324 329.182,1.672 329.638,1.672C330.094,1.672 330.442,1.324 330.442,0.844C330.442,0.352 330.094,0.004 329.638,0.004ZM330.322,9.052L330.322,2.668L328.954,2.668L328.954,9.052L330.322,9.052Z" style="fill:rgb(77,77,77);fill-rule:nonzero;"/>
        <path d="M335.146,7.588C334.774,7.768 334.474,7.864 334.186,7.864C333.754,7.864 333.502,7.66 333.502,7L333.502,3.94L335.386,3.94L335.386,2.908L333.502,2.908L333.502,1.156L332.134,1.156L332.134,2.908L331.234,2.908L331.234,3.94L332.134,3.94L332.134,7.252C332.134,8.56 332.962,9.112 333.922,9.112C334.462,9.112 334.99,8.944 335.494,8.644L335.146,7.588Z" style="fill:rgb(77,77,77);fill-rule:nonzero;"/>
        <path d="M341.698,2.668L340.318,2.668L338.542,7.504L336.634,2.668L335.206,2.668L337.846,8.956L337.63,9.436C337.414,9.916 337.078,10.144 336.658,10.144C336.37,10.144 336.13,10.048 335.83,9.832L335.242,10.9C335.686,11.272 336.142,11.44 336.718,11.44C337.678,11.44 338.398,10.936 338.794,9.928L341.698,2.668Z" style="fill:rgb(77,77,77);fill-rule:nonzero;"/>
        <path d="M350.506,1.924L350.518,0.652L344.878,0.652L344.878,9.052L346.294,9.052L346.294,5.608L350.11,5.608L350.11,4.348L346.294,4.348L346.294,1.924L350.506,1.924Z" style="fill:rgb(77,77,77);fill-rule:nonzero;"/>
        <path d="M353.95,2.62C351.97,2.62 350.614,3.928 350.614,5.86C350.614,7.78 351.97,9.1 353.95,9.1C355.918,9.1 357.274,7.78 357.274,5.86C357.274,3.928 355.918,2.62 353.95,2.62ZM353.95,3.808C355.09,3.808 355.894,4.648 355.894,5.872C355.894,7.108 355.09,7.948 353.95,7.948C352.798,7.948 351.994,7.108 351.994,5.872C351.994,4.648 352.798,3.808 353.95,3.808Z" style="fill:rgb(77,77,77);fill-rule:nonzero;"/>
        <path d="M359.614,2.668L358.234,2.668L358.234,9.052L359.614,9.052L359.614,5.716C359.722,4.624 360.538,3.868 361.822,3.94L361.822,2.62C360.814,2.62 360.046,3.076 359.614,3.94L359.614,2.668Z" style="fill:rgb(77,77,77);fill-rule:nonzero;"/>
        <path d="M368.278,2.668L366.898,2.668L366.898,5.812C366.898,6.928 366.25,7.78 365.146,7.804C364.222,7.804 363.658,7.216 363.658,6.256L363.658,2.668L362.278,2.668L362.278,6.64C362.278,8.164 363.154,9.1 364.618,9.1C365.662,9.088 366.466,8.692 366.898,7.804L366.898,9.052L368.278,9.052L368.278,2.668Z" style="fill:rgb(77,77,77);fill-rule:nonzero;"/>
        <path d="M378.166,2.62C377.002,2.62 376.15,3.088 375.742,4.156C375.442,3.184 374.662,2.62 373.522,2.62C372.466,2.62 371.65,3.004 371.206,3.904L371.206,2.668L369.838,2.668L369.838,9.052L371.206,9.052L371.206,5.896C371.206,4.78 371.878,3.94 372.982,3.904C373.918,3.904 374.482,4.492 374.482,5.464L374.482,9.052L375.862,9.052L375.862,5.896C375.862,4.78 376.522,3.94 377.614,3.904C378.55,3.904 379.126,4.492 379.126,5.464L379.126,9.052L380.506,9.052L380.506,5.08C380.506,3.556 379.63,2.62 378.166,2.62Z" style="fill:rgb(77,77,77);fill-rule:nonzero;"/>
        <path d="M383.782,2.608C382.558,2.608 381.43,3.16 381.43,4.456C381.418,6.76 384.778,6.028 384.778,7.336C384.778,7.816 384.322,8.02 383.734,8.02C383.038,8.02 382.15,7.72 381.598,7.228L381.106,8.212C381.742,8.788 382.738,9.1 383.674,9.1C384.958,9.1 386.122,8.512 386.122,7.204C386.134,4.888 382.738,5.524 382.738,4.348C382.738,3.892 383.134,3.712 383.674,3.712C384.238,3.712 384.946,3.928 385.51,4.276L386.014,3.256C385.438,2.848 384.586,2.608 383.782,2.608Z" style="fill:rgb(77,77,77);fill-rule:nonzero;"/>
    </g>
</svg>
