<?xml version="1.0" encoding="UTF-8" standalone="no"?>
<!DOCTYPE svg PUBLIC "-//W3C//DTD SVG 1.1//EN" "http://www.w3.org/Graphics/SVG/1.1/DTD/svg11.dtd">
<svg width="100%" height="100%" viewBox="0 0 84 14" version="1.1" xmlns="http://www.w3.org/2000/svg" xmlns:xlink="http://www.w3.org/1999/xlink" xml:space="preserve" style="fill-rule:evenodd;clip-rule:evenodd;stroke-linejoin:round;stroke-miterlimit:1.41421;">
    <g transform="matrix(0.44057,0,-1.26696e-32,0.44057,-6.39005,-8.20892)">
        <path d="M28.943,20.664C22.558,20.664 18.233,23.814 18.233,28.854C18.233,39.312 34.108,35.658 34.108,42.211C34.108,44.481 32.051,45.781 28.608,45.781C25.458,45.781 21.678,44.271 18.652,41.498L16.512,45.781C19.535,48.553 23.902,50.443 28.522,50.443C34.99,50.443 39.61,47.209 39.61,41.96C39.652,31.375 23.777,34.818 23.777,28.393C23.777,26.419 25.667,25.326 28.565,25.326C30.791,25.326 33.983,26.124 37.175,28.056L39.233,23.689C36.503,21.882 32.765,20.663 28.943,20.663L28.943,20.664ZM54.436,45.15C53.136,45.78 52.084,46.117 51.076,46.117C49.566,46.117 48.683,45.403 48.683,43.093L48.683,32.383L55.276,32.383L55.276,28.77L48.683,28.77L48.683,22.64L43.895,22.64L43.895,28.77L40.745,28.77L40.745,32.382L43.895,32.382L43.895,43.974C43.895,48.552 46.793,50.484 50.153,50.484C52.043,50.484 53.891,49.897 55.655,48.846L54.435,45.151L54.436,45.15ZM62.836,27.93L58.006,27.93L58.006,50.274L62.836,50.274L62.836,38.598C63.216,34.776 66.07,32.131 70.564,32.382L70.564,27.762C67.037,27.762 64.348,29.358 62.836,32.382L62.836,27.932L62.836,27.93ZM81.652,27.762C75.017,27.804 70.355,32.382 70.355,39.145C70.355,45.865 74.891,50.442 81.779,50.442C85.642,50.442 88.834,49.057 91.017,46.662L88.455,43.932C86.817,45.612 84.591,46.536 82.155,46.536C78.628,46.536 75.981,44.396 75.225,40.95L92.11,40.95C92.7,32.887 89.507,27.762 81.652,27.762L81.652,27.762ZM75.142,37.422C75.689,33.852 78.167,31.626 81.694,31.626C85.348,31.626 87.742,33.811 87.91,37.423L75.143,37.423L75.142,37.422ZM104.248,27.762C97.613,27.804 92.951,32.382 92.951,39.145C92.951,45.865 97.488,50.442 104.376,50.442C108.24,50.442 111.432,49.057 113.616,46.662L111.053,43.932C109.415,45.612 107.189,46.536 104.753,46.536C101.226,46.536 98.579,44.396 97.823,40.95L114.707,40.95C115.297,32.887 112.104,27.762 104.249,27.762L104.248,27.762ZM97.738,37.422C98.285,33.852 100.762,31.626 104.291,31.626C107.945,31.626 110.339,33.811 110.508,37.423L97.738,37.423L97.738,37.422ZM129.07,45.15C127.77,45.78 126.718,46.117 125.71,46.117C124.198,46.117 123.316,45.403 123.316,43.093L123.316,32.383L129.91,32.383L129.91,28.77L123.316,28.77L123.316,22.64L118.529,22.64L118.529,28.77L115.379,28.77L115.379,32.382L118.529,32.382L118.529,43.974C118.529,48.552 121.426,50.484 124.785,50.484C126.675,50.484 128.525,49.897 130.287,48.846L129.069,45.151L129.07,45.15ZM161.788,27.762C157.714,27.762 154.732,29.4 153.305,33.138C152.255,29.738 149.525,27.762 145.535,27.762C141.838,27.762 138.982,29.107 137.428,32.257L137.428,27.93L132.64,27.93L132.64,50.274L137.428,50.274L137.428,39.23C137.428,35.323 139.78,32.382 143.644,32.257C146.92,32.257 148.894,34.315 148.894,37.717L148.894,50.274L153.724,50.274L153.724,39.23C153.724,35.323 156.034,32.382 159.856,32.257C163.132,32.257 165.148,34.315 165.148,37.717L165.148,50.274L169.978,50.274L169.978,36.372C169.978,31.038 166.912,27.762 161.788,27.762L161.788,27.762ZM176.74,18.607C175.144,18.607 173.926,19.825 173.926,21.547C173.926,23.227 175.144,24.445 176.74,24.445C178.336,24.445 179.554,23.225 179.554,21.545C179.554,19.825 178.336,18.607 176.74,18.607L176.74,18.607ZM179.134,50.274L179.134,27.93L174.346,27.93L174.346,50.274L179.134,50.274ZM192.28,35.574L187.282,27.931L181.738,27.931L189.088,38.809L181.192,50.275L186.568,50.275L192.28,42.085L197.614,50.275L203.158,50.275L195.472,38.809L202.654,27.932L197.362,27.932L192.28,35.576L192.28,35.574Z" style="fill:black;fill-rule:nonzero;"/>
    </g>
</svg>
